<svg width="125" height="36" viewBox="0 0 125 36" fill="none" xmlns="http://www.w3.org/2000/svg">
<g clip-path="url(#clip0_681_287)">
<mask id="mask0_681_287" style="mask-type:alpha" maskUnits="userSpaceOnUse" x="0" y="0" width="125" height="36">
<path d="M125 0H0V36H125V0Z" fill="#D9D9D9"/>
</mask>
<g mask="url(#mask0_681_287)">
<g clip-path="url(#clip1_681_287)">
<mask id="mask1_681_287" style="mask-type:alpha" maskUnits="userSpaceOnUse" x="0" y="0" width="35" height="35">
<path d="M34.0247 0H0V34.0247H34.0247V0Z" fill="#02DF82"/>
</mask>
<g mask="url(#mask1_681_287)">
<mask id="mask2_681_287" style="mask-type:alpha" maskUnits="userSpaceOnUse" x="17" y="0" width="18" height="35">
<path d="M34.0248 0H17.0125V34.0247H34.0248V0Z" fill="#02DF82"/>
</mask>
<g mask="url(#mask2_681_287)">
<path d="M17.0125 17.0124C17.0125 7.61671 24.6292 0 34.0248 0V34.0247C24.6292 34.0247 17.0125 26.408 17.0125 17.0124Z" fill="#B6F143"/>
</g>
<mask id="mask3_681_287" style="mask-type:alpha" maskUnits="userSpaceOnUse" x="5" y="0" width="12" height="35">
<path d="M16.3581 0H5.23462V34.0247H16.3581V0Z" fill="#02DF82"/>
</mask>
<g mask="url(#mask3_681_287)">
<path d="M5.23462 17.0124C5.23462 7.61671 12.8513 0 22.247 0V34.0247C12.8513 34.0247 5.23462 26.408 5.23462 17.0124Z" fill="#B6F143"/>
</g>
<mask id="mask4_681_287" style="mask-type:alpha" maskUnits="userSpaceOnUse" x="0" y="0" width="5" height="35">
<path d="M4.58025 0H0V34.0247H4.58025V0Z" fill="#02DF82"/>
</mask>
<g mask="url(#mask4_681_287)">
<path d="M0 12.4313C0 3.03564 7.61671 -4.58105 17.0124 -4.58105V38.6042C7.61671 38.6042 0 30.9875 0 21.5918V12.4313Z" fill="#B6F143"/>
</g>
</g>
</g>
<path d="M113.832 11.7741C113.832 10.728 113.984 9.8137 114.287 9.03113C114.591 8.24057 114.994 7.58178 115.497 7.05474C116.008 6.52771 116.599 6.13243 117.27 5.86891C117.941 5.60539 118.643 5.47363 119.378 5.47363C120.113 5.47363 120.816 5.59741 121.486 5.84495C122.157 6.08452 122.744 6.45584 123.247 6.95892C123.758 7.462 124.165 8.10083 124.469 8.87541C124.772 9.64201 124.924 10.5523 124.924 11.6064C124.924 12.6525 124.772 13.5788 124.469 14.3853C124.165 15.1919 123.758 15.8706 123.247 16.4216C122.744 16.9726 122.157 17.3918 121.486 17.6793C120.816 17.9588 120.113 18.0986 119.378 18.0986C118.643 18.0986 117.941 17.9668 117.27 17.7033C116.599 17.4318 116.008 17.0325 115.497 16.5055C114.994 15.9784 114.591 15.3196 114.287 14.5291C113.984 13.7385 113.832 12.8202 113.832 11.7741ZM121.199 11.6543C121.199 11.0155 121.175 10.4006 121.127 9.80971C121.087 9.2108 121.003 8.67977 120.875 8.21662C120.748 7.75347 120.564 7.38614 120.324 7.11463C120.085 6.83514 119.769 6.6954 119.378 6.6954C118.987 6.6954 118.671 6.84313 118.432 7.13859C118.192 7.42606 118.009 7.80936 117.881 8.28849C117.753 8.75963 117.669 9.29864 117.629 9.90553C117.589 10.5124 117.569 11.1353 117.569 11.7741C117.569 12.4129 117.589 13.0398 117.629 13.6547C117.669 14.2616 117.753 14.8046 117.881 15.2837C118.009 15.7628 118.192 16.1501 118.432 16.4456C118.671 16.733 118.987 16.8768 119.378 16.8768C119.769 16.8768 120.085 16.7251 120.324 16.4216C120.564 16.1182 120.748 15.7189 120.875 15.2238C121.003 14.7287 121.087 14.1697 121.127 13.5469C121.175 12.924 121.199 12.2932 121.199 11.6543Z" fill="white"/>
<path d="M110.455 6.50339V15.3552C110.455 15.7784 110.535 16.0739 110.694 16.2416C110.854 16.4013 111.074 16.4811 111.353 16.4811C111.569 16.4811 111.76 16.4213 111.928 16.3015C112.096 16.1817 112.239 16.0459 112.359 15.8942C112.503 15.7265 112.627 15.5309 112.731 15.3073L113.102 15.475C112.982 15.7305 112.838 16.01 112.671 16.3135C112.511 16.6169 112.295 16.9004 112.024 17.1639C111.752 17.4194 111.409 17.635 110.994 17.8107C110.586 17.9864 110.071 18.0742 109.449 18.0742C109.097 18.0742 108.758 18.0223 108.43 17.9185C108.111 17.8147 107.823 17.651 107.568 17.4274C107.32 17.2038 107.121 16.9243 106.969 16.5889C106.817 16.2536 106.741 15.8503 106.741 15.3792V6.50339H105.4V5.64096C105.623 5.64096 105.935 5.58506 106.334 5.47327C106.733 5.35349 107.141 5.15785 107.556 4.88634C107.979 4.61484 108.37 4.2515 108.73 3.79633C109.089 3.34117 109.345 2.7782 109.496 2.10742H110.455V5.64096H112.407C113.046 5.64096 113.365 5.53316 113.365 5.31755C113.365 5.2377 113.325 5.18579 113.246 5.16184C113.166 5.1299 113.074 5.09396 112.97 5.05404C112.874 5.00612 112.786 4.94224 112.707 4.86239C112.627 4.78253 112.587 4.65077 112.587 4.46711C112.587 4.24352 112.655 4.06784 112.79 3.94007C112.934 3.81231 113.118 3.74842 113.341 3.74842C113.485 3.74842 113.609 3.78036 113.713 3.84425C113.825 3.90014 113.916 3.98 113.988 4.08381C114.06 4.17963 114.112 4.29143 114.144 4.4192C114.184 4.54696 114.204 4.67473 114.204 4.8025C114.204 5.32155 114.052 5.73679 113.749 6.04822C113.453 6.35166 112.974 6.50339 112.311 6.50339H110.455Z" fill="white"/>
<path d="M100.417 11.9418C100.417 10.9356 100.369 10.1331 100.273 9.53421C100.185 8.92732 100.065 8.46816 99.9137 8.15673C99.762 7.83731 99.5943 7.62969 99.4107 7.53387C99.227 7.43006 99.0393 7.37815 98.8477 7.37815C98.6161 7.37815 98.4085 7.44203 98.2248 7.5698C98.0492 7.68958 97.8934 7.82933 97.7577 7.98903C97.6299 8.14874 97.5181 8.30845 97.4223 8.46816C97.3345 8.62787 97.2586 8.74765 97.1947 8.8275V16.8289C97.1947 16.9327 97.1787 17.0605 97.1468 17.2122C97.1149 17.3559 97.035 17.4957 96.9072 17.6314C96.7875 17.7592 96.6038 17.867 96.3562 17.9548C96.1167 18.0506 95.7853 18.0986 95.3621 18.0986C94.9388 18.0986 94.6034 18.0466 94.3559 17.9428C94.1163 17.847 93.9327 17.7312 93.8049 17.5955C93.6771 17.4597 93.5973 17.32 93.5653 17.1762C93.5334 17.0325 93.5174 16.9167 93.5174 16.8289V7.58178C93.5174 7.3502 93.4615 7.15057 93.3497 6.98287C93.2459 6.80719 93.0663 6.71936 92.8107 6.71936C92.675 6.71936 92.5592 6.74331 92.4634 6.79122C92.3675 6.83914 92.2637 6.90701 92.1519 6.99485L91.9004 6.6954C92.0841 6.54368 92.2877 6.39595 92.5113 6.25221C92.7429 6.10049 92.9904 5.96873 93.2539 5.85693C93.5174 5.74514 93.8009 5.6533 94.1044 5.58144C94.4078 5.50957 94.7272 5.47363 95.0626 5.47363C95.5817 5.47363 95.9849 5.56147 96.2724 5.73715C96.5599 5.90484 96.7715 6.10847 96.9072 6.34803C97.043 6.5876 97.1228 6.83914 97.1468 7.10265C97.1787 7.35819 97.1947 7.57379 97.1947 7.74947C97.4902 7.32625 97.8256 6.94694 98.2009 6.61155C98.3526 6.46782 98.5203 6.32807 98.704 6.19232C98.8956 6.05657 99.0952 5.93679 99.3029 5.83298C99.5185 5.72118 99.7421 5.63334 99.9736 5.56946C100.213 5.50557 100.457 5.47363 100.704 5.47363C101.247 5.47363 101.726 5.57744 102.142 5.78506C102.565 5.99268 102.92 6.34005 103.208 6.82716C103.495 7.31427 103.715 7.96109 103.867 8.76761C104.018 9.56615 104.094 10.5603 104.094 11.7502C104.094 12.908 103.99 13.9142 103.783 14.7686C103.575 15.6231 103.304 16.3498 102.968 16.9487C102.633 17.5476 102.253 18.0347 101.83 18.41C101.407 18.7933 100.98 19.0927 100.549 19.3083C100.117 19.5239 99.7021 19.6717 99.3029 19.7515C98.9116 19.8394 98.5722 19.8873 98.2847 19.8953L98.153 19.4042C98.3925 19.3483 98.6121 19.2604 98.8118 19.1406C99.0194 19.0209 99.207 18.8452 99.3747 18.6136C99.5424 18.382 99.6902 18.0906 99.8179 17.7392C99.9457 17.3799 100.053 16.9327 100.141 16.3977C100.237 15.8626 100.305 15.2318 100.345 14.5051C100.393 13.7705 100.417 12.916 100.417 11.9418Z" fill="white"/>
<path d="M86.5463 11.7022C86.5463 11.5026 86.4824 11.3509 86.3547 11.2471C86.2269 11.1433 86.0632 11.0914 85.8635 11.0914C85.5841 11.0914 85.3165 11.1552 85.061 11.283C84.8135 11.4108 84.5939 11.5984 84.4022 11.846C84.2106 12.0935 84.0588 12.401 83.9471 12.7683C83.8353 13.1276 83.7794 13.5469 83.7794 14.026C83.7794 14.4892 83.8113 14.8725 83.8752 15.1759C83.9471 15.4793 84.0389 15.7229 84.1507 15.9066C84.2705 16.0822 84.4062 16.206 84.5579 16.2779C84.7097 16.3498 84.8694 16.3857 85.0371 16.3857C85.2447 16.3857 85.4403 16.3338 85.624 16.23C85.8077 16.1182 85.9674 15.9784 86.1031 15.8107C86.2389 15.643 86.3467 15.4554 86.4265 15.2478C86.5064 15.0401 86.5463 14.8325 86.5463 14.6249V11.7022ZM84.6418 6.45584C84.3703 6.45584 84.1187 6.48778 83.8872 6.55166C83.6556 6.61555 83.456 6.6954 83.2883 6.79122C83.1206 6.88705 82.9888 6.99485 82.893 7.11463C82.7972 7.22643 82.7492 7.33423 82.7492 7.43804C82.7492 7.55782 82.8091 7.64566 82.9289 7.70156C83.0567 7.74947 83.1964 7.80936 83.3481 7.88123C83.4999 7.94511 83.6356 8.04094 83.7554 8.16871C83.8832 8.28849 83.9471 8.47614 83.9471 8.73168C83.9471 8.89937 83.9111 9.05509 83.8393 9.19882C83.7754 9.33457 83.6835 9.45835 83.5638 9.57014C83.452 9.67395 83.3162 9.7578 83.1565 9.82168C83.0048 9.87758 82.8451 9.90553 82.6774 9.90553C82.2302 9.90553 81.8669 9.75381 81.5874 9.45036C81.3159 9.14692 81.1801 8.74365 81.1801 8.24057C81.1801 7.75347 81.3079 7.33822 81.5634 6.99485C81.8189 6.64349 82.1503 6.35602 82.5576 6.13243C82.9728 5.90884 83.44 5.74514 83.959 5.64133C84.4781 5.52953 84.9971 5.47363 85.5162 5.47363C86.139 5.47363 86.734 5.54151 87.3009 5.67726C87.8679 5.81301 88.367 6.02862 88.7982 6.32408C89.2374 6.61954 89.5847 6.99485 89.8403 7.45002C90.1038 7.90519 90.2356 8.45618 90.2356 9.103V15.8706C90.2356 15.9425 90.2395 16.0223 90.2475 16.1102C90.2555 16.198 90.2755 16.2779 90.3074 16.3498C90.3394 16.4216 90.3873 16.4815 90.4512 16.5294C90.515 16.5773 90.6069 16.6013 90.7267 16.6013C90.8704 16.6013 91.0022 16.5494 91.1219 16.4456C91.2497 16.3338 91.3615 16.222 91.4573 16.1102L91.7568 16.3617C91.637 16.5294 91.4933 16.7131 91.3256 16.9127C91.1579 17.1124 90.9542 17.3 90.7147 17.4757C90.4751 17.6514 90.1956 17.7991 89.8762 17.9189C89.5568 18.0387 89.1935 18.0986 88.7862 18.0986C88.2831 18.0986 87.8359 17.9508 87.4447 17.6554C87.0534 17.3519 86.7978 16.8888 86.6781 16.2659C86.4225 16.6093 86.155 16.8968 85.8755 17.1283C85.604 17.3599 85.3245 17.5476 85.0371 17.6913C84.7496 17.835 84.4581 17.9388 84.1627 18.0027C83.8752 18.0666 83.5837 18.0986 83.2883 18.0986C82.905 18.0986 82.5336 18.0387 82.1743 17.9189C81.815 17.7991 81.4915 17.6114 81.2041 17.3559C80.9246 17.0924 80.697 16.753 80.5213 16.3378C80.3536 15.9225 80.2698 15.4155 80.2698 14.8166C80.2698 14.0899 80.4135 13.495 80.701 13.0318C80.9885 12.5687 81.3638 12.1814 81.8269 11.8699C82.2981 11.5505 82.8291 11.279 83.42 11.0554C84.0189 10.8318 84.6298 10.5963 85.2527 10.3487C85.7158 10.1651 86.0512 9.89355 86.2588 9.53421C86.4744 9.16688 86.5822 8.79157 86.5822 8.40827C86.5822 7.81735 86.4066 7.34621 86.0552 6.99485C85.7118 6.63551 85.2407 6.45584 84.6418 6.45584Z" fill="white"/>
<path d="M71.5976 16.8528C71.5976 16.9566 71.5817 17.0804 71.5497 17.2242C71.5178 17.3679 71.4379 17.5036 71.3102 17.6314C71.1904 17.7592 71.0067 17.867 70.7592 17.9548C70.5116 18.0506 70.1762 18.0986 69.753 18.0986C69.3298 18.0986 68.9944 18.0466 68.7468 17.9428C68.5073 17.847 68.3236 17.7312 68.1958 17.5955C68.0761 17.4597 68.0002 17.32 67.9683 17.1762C67.9363 17.0325 67.9203 16.9167 67.9203 16.8289V8.36036C67.9203 8.24856 67.9044 8.13676 67.8724 8.02497C67.8405 7.90519 67.7926 7.79738 67.7287 7.70156C67.6648 7.60574 67.585 7.52987 67.4891 7.47398C67.3933 7.41009 67.2815 7.37815 67.1537 7.37815C66.9381 7.37815 66.7265 7.44203 66.5189 7.5698C66.3113 7.68958 66.1156 7.82933 65.932 7.98903C65.7563 8.14874 65.6006 8.30845 65.4648 8.46816C65.3371 8.62787 65.2452 8.74765 65.1893 8.8275V16.8528C65.1893 16.9566 65.1734 17.0804 65.1414 17.2242C65.1095 17.3679 65.0296 17.5036 64.9019 17.6314C64.7821 17.7592 64.5984 17.867 64.3509 17.9548C64.1113 18.0506 63.7799 18.0986 63.3567 18.0986C62.9335 18.0986 62.5981 18.0466 62.3505 17.9428C62.111 17.847 61.9273 17.7312 61.7995 17.5955C61.6718 17.4597 61.5919 17.32 61.56 17.1762C61.528 17.0325 61.5121 16.9167 61.5121 16.8289V7.58178C61.5121 7.3502 61.4562 7.15057 61.3444 6.98287C61.2406 6.80719 61.0609 6.71936 60.8054 6.71936C60.6696 6.71936 60.5538 6.74331 60.458 6.79122C60.3622 6.83914 60.2584 6.90701 60.1466 6.99485L59.895 6.6954C60.0787 6.54368 60.2823 6.39595 60.5059 6.25221C60.7375 6.10049 60.985 5.96873 61.2485 5.85693C61.5121 5.74514 61.7955 5.6533 62.099 5.58144C62.4024 5.50957 62.7219 5.47363 63.0572 5.47363C63.5763 5.47363 63.9796 5.56147 64.267 5.73715C64.5545 5.90484 64.7661 6.10847 64.9019 6.34803C65.0376 6.5876 65.1175 6.83914 65.1414 7.10265C65.1734 7.35819 65.1893 7.57379 65.1893 7.74947C65.5647 7.32625 65.9679 6.94694 66.3991 6.61155C66.5748 6.46782 66.7665 6.32807 66.9741 6.19232C67.1897 6.05657 67.4093 5.93679 67.6329 5.83298C67.8565 5.72118 68.088 5.63334 68.3276 5.56946C68.5672 5.50557 68.8067 5.47363 69.0463 5.47363C69.5094 5.47363 69.9047 5.55748 70.2321 5.72517C70.5595 5.89287 70.823 6.09649 71.0227 6.33606C71.2223 6.56763 71.366 6.81518 71.4539 7.0787C71.5497 7.33423 71.5976 7.55782 71.5976 7.74947C71.9809 7.32625 72.3842 6.94694 72.8074 6.61155C72.9831 6.46782 73.1747 6.32807 73.3824 6.19232C73.59 6.05657 73.8056 5.93679 74.0292 5.83298C74.2608 5.72118 74.4923 5.63334 74.7239 5.56946C74.9635 5.50557 75.203 5.47363 75.4426 5.47363C75.9058 5.47363 76.301 5.56147 76.6284 5.73715C76.9558 5.90484 77.2193 6.12844 77.419 6.40792C77.6186 6.68741 77.7624 7.00284 77.8502 7.35419C77.946 7.70555 77.9939 8.05691 77.9939 8.40827V15.8227C77.9939 15.8946 77.9979 15.9744 78.0059 16.0623C78.0139 16.1421 78.0339 16.222 78.0658 16.3018C78.0977 16.3737 78.1457 16.4336 78.2095 16.4815C78.2814 16.5294 78.3732 16.5534 78.485 16.5534C78.6368 16.5534 78.7725 16.5015 78.8923 16.3977C79.0121 16.2859 79.1239 16.1741 79.2277 16.0623L79.5152 16.3138C79.4034 16.4815 79.2556 16.6692 79.072 16.8768C78.8883 17.0764 78.6687 17.2681 78.4132 17.4517C78.1656 17.6354 77.8742 17.7871 77.5388 17.9069C77.2114 18.0347 76.84 18.0986 76.4248 18.0986C76.0734 18.0986 75.766 18.0506 75.5025 17.9548C75.247 17.867 75.0274 17.7472 74.8437 17.5955C74.668 17.4358 74.5363 17.2521 74.4484 17.0445C74.3606 16.8289 74.3167 16.6013 74.3167 16.3617V8.36036C74.3167 8.24856 74.3007 8.13676 74.2687 8.02497C74.2368 7.90519 74.1889 7.79738 74.125 7.70156C74.0691 7.60574 73.9932 7.52987 73.8974 7.47398C73.8016 7.41009 73.6898 7.37815 73.562 7.37815C73.3464 7.37815 73.1308 7.44203 72.9152 7.5698C72.7076 7.68958 72.512 7.82933 72.3283 7.98903C72.1526 8.14874 72.0009 8.30845 71.8731 8.46816C71.7454 8.62787 71.6535 8.74765 71.5976 8.8275V16.8528Z" fill="white"/>
<path d="M58.3378 16.8293C58.3378 16.9331 58.3178 17.0609 58.2779 17.2126C58.2459 17.3564 58.1621 17.4961 58.0263 17.6319C57.8986 17.7596 57.7109 17.8674 57.4634 17.9553C57.2158 18.0511 56.8804 18.099 56.4572 18.099C56.034 18.099 55.7026 18.0471 55.463 17.9433C55.2235 17.8475 55.0438 17.7317 54.924 17.5959C54.8042 17.4602 54.7284 17.3204 54.6964 17.1767C54.6725 17.033 54.6605 16.9172 54.6605 16.8293V7.58224C54.6605 7.35066 54.6046 7.15102 54.4928 6.98333C54.389 6.80765 54.2093 6.71981 53.9538 6.71981C53.818 6.71981 53.7023 6.74377 53.6064 6.79168C53.5106 6.83959 53.4068 6.90747 53.295 6.99531L53.0435 6.69586C53.2271 6.54413 53.4307 6.3964 53.6543 6.25267C53.8859 6.10094 54.1335 5.96918 54.397 5.85739C54.6605 5.74559 54.944 5.65376 55.2474 5.58189C55.5509 5.51002 55.8703 5.47409 56.2057 5.47409C56.7247 5.47409 57.128 5.54596 57.4155 5.6897C57.7029 5.82545 57.9146 5.99713 58.0503 6.20475C58.1861 6.40439 58.2659 6.61999 58.2899 6.85157C58.3218 7.08315 58.3378 7.28678 58.3378 7.46245V16.8293ZM54.2892 2.74308C54.2892 2.51949 54.3371 2.30788 54.4329 2.10824C54.5367 1.90062 54.6765 1.72095 54.8522 1.56923C55.0358 1.4175 55.2434 1.29772 55.475 1.20988C55.7146 1.12204 55.9741 1.07812 56.2536 1.07812C56.5251 1.07812 56.7766 1.12204 57.0082 1.20988C57.2478 1.29772 57.4554 1.4175 57.6311 1.56923C57.8067 1.72095 57.9425 1.90062 58.0383 2.10824C58.1421 2.30788 58.194 2.51949 58.194 2.74308C58.194 2.97466 58.1421 3.19026 58.0383 3.3899C57.9425 3.58953 57.8067 3.76521 57.6311 3.91694C57.4554 4.06067 57.2478 4.17646 57.0082 4.2643C56.7766 4.35214 56.5251 4.39606 56.2536 4.39606C55.9741 4.39606 55.7146 4.35214 55.475 4.2643C55.2434 4.17646 55.0358 4.06067 54.8522 3.91694C54.6765 3.76521 54.5367 3.58953 54.4329 3.3899C54.3371 3.19026 54.2892 2.97466 54.2892 2.74308Z" fill="white"/>
<path d="M45.617 19.6441C45.9364 19.6441 46.2518 19.5842 46.5632 19.4644C46.8747 19.3526 47.1502 19.161 47.3897 18.8895C47.6373 18.6259 47.8369 18.2786 47.9886 17.8474C48.1403 17.4162 48.2162 16.8891 48.2162 16.2663C48.2162 15.5955 48.0485 14.9447 47.7131 14.3138C47.3857 13.683 46.9705 13.0641 46.4674 12.4572C45.9723 11.8424 45.4333 11.2355 44.8504 10.6366C44.2754 10.0297 43.7364 9.41479 43.2333 8.79193C42.7382 8.16108 42.323 7.51426 41.9876 6.85147C41.6602 6.1807 41.4965 5.48198 41.4965 4.75531C41.4965 4.02864 41.6282 3.37383 41.8918 2.7909C42.1633 2.19998 42.5266 1.70089 42.9818 1.29364C43.4449 0.878394 43.9799 0.558978 44.5868 0.335387C45.2017 0.111796 45.8565 0 46.5512 0C47.2939 0 47.9527 0.079854 48.5276 0.239562C49.1106 0.391285 49.6017 0.602898 50.0009 0.874402C50.4082 1.13792 50.7156 1.45334 50.9233 1.82067C51.1309 2.18001 51.2347 2.56331 51.2347 2.97057C51.2347 3.16222 51.2067 3.36185 51.1508 3.56947C51.0949 3.76911 51.0071 3.95277 50.8873 4.12047C50.7675 4.28816 50.6158 4.42791 50.4322 4.5397C50.2485 4.6515 50.0329 4.70739 49.7853 4.70739C49.4899 4.70739 49.2703 4.61955 49.1265 4.44388C48.9908 4.26021 48.887 4.03662 48.8151 3.7731C48.7512 3.50958 48.6953 3.22211 48.6474 2.91068C48.5995 2.59126 48.5236 2.2998 48.4198 2.03628C48.316 1.77276 48.1603 1.55316 47.9527 1.37748C47.7451 1.19382 47.4416 1.10199 47.0423 1.10199C46.8267 1.10199 46.6111 1.1499 46.3955 1.24572C46.1879 1.34155 45.9963 1.48928 45.8206 1.68891C45.6529 1.88056 45.5171 2.12811 45.4133 2.43155C45.3095 2.735 45.2576 3.09434 45.2576 3.50958C45.2576 3.98871 45.3574 4.45585 45.5571 4.91102C45.7567 5.36619 46.0202 5.81737 46.3476 6.26455C46.675 6.70374 47.0463 7.14693 47.4616 7.59412C47.8848 8.03331 48.312 8.4805 48.7432 8.93566C49.1824 9.38285 49.6097 9.846 50.0249 10.3251C50.4481 10.7963 50.8234 11.2874 51.1508 11.7984C51.4782 12.3095 51.7418 12.8445 51.9414 13.4035C52.141 13.9625 52.2408 14.5494 52.2408 15.1643C52.2408 16.0666 52.0652 16.8732 51.7138 17.5839C51.3704 18.2866 50.8993 18.8775 50.3004 19.3566C49.7095 19.8437 49.0147 20.215 48.2162 20.4706C47.4177 20.7261 46.5672 20.8539 45.6649 20.8539C44.8504 20.8539 44.1277 20.7501 43.4968 20.5424C42.874 20.3428 42.3469 20.0753 41.9157 19.7399C41.4845 19.4045 41.1571 19.0212 40.9335 18.59C40.7179 18.1668 40.6101 17.7276 40.6101 17.2724C40.6101 17.0808 40.6381 16.8771 40.694 16.6615C40.7578 16.4379 40.8457 16.2343 40.9575 16.0507C41.0773 15.867 41.225 15.7153 41.4007 15.5955C41.5763 15.4677 41.78 15.4038 42.0115 15.4038C42.2511 15.4038 42.4428 15.4637 42.5865 15.5835C42.7382 15.7033 42.858 15.863 42.9458 16.0626C43.0337 16.2623 43.1055 16.4899 43.1614 16.7454C43.2173 17.0009 43.2772 17.2604 43.3411 17.524C43.405 17.7875 43.4849 18.047 43.5807 18.3025C43.6765 18.5581 43.8083 18.7857 43.976 18.9853C44.1436 19.1849 44.3593 19.3446 44.6228 19.4644C44.8863 19.5842 45.2177 19.6441 45.617 19.6441Z" fill="white"/>
<path d="M121.266 34.025V29.1946H122.026V29.7873H122.165C122.25 29.5765 122.382 29.4218 122.56 29.323C122.738 29.2242 122.971 29.1748 123.261 29.1748H123.834V29.886H123.212C122.863 29.886 122.58 29.9848 122.362 30.1824C122.152 30.3734 122.046 30.673 122.046 31.0813V34.025H121.266Z" fill="white"/>
<path d="M117.632 34.1627C117.145 34.1627 116.717 34.0606 116.348 33.8564C115.979 33.6457 115.693 33.3527 115.489 32.9773C115.285 32.6019 115.183 32.1673 115.183 31.6734V31.5548C115.183 31.0543 115.285 30.6164 115.489 30.241C115.693 29.8657 115.976 29.5759 116.338 29.3718C116.701 29.161 117.115 29.0557 117.583 29.0557C118.037 29.0557 118.439 29.1544 118.788 29.352C119.137 29.543 119.41 29.8196 119.608 30.1818C119.806 30.544 119.904 30.9687 119.904 31.4561V31.8117H115.963C115.983 32.3319 116.151 32.7402 116.467 33.0366C116.783 33.3263 117.178 33.4712 117.652 33.4712C118.067 33.4712 118.386 33.3757 118.61 33.1847C118.834 32.9938 119.005 32.7666 119.124 32.5031L119.796 32.8291C119.697 33.0333 119.559 33.2374 119.381 33.4416C119.21 33.6457 118.982 33.8169 118.699 33.9552C118.423 34.0935 118.067 34.1627 117.632 34.1627ZM115.973 31.1696H119.114C119.088 30.7218 118.933 30.3728 118.65 30.1225C118.373 29.8723 118.018 29.7471 117.583 29.7471C117.142 29.7471 116.78 29.8723 116.496 30.1225C116.213 30.3728 116.039 30.7218 115.973 31.1696Z" fill="white"/>
<path d="M109.362 34.0248V29.1944H110.122V30.0143H110.261C110.366 29.7838 110.544 29.5763 110.794 29.3919C111.051 29.201 111.426 29.1055 111.92 29.1055C112.282 29.1055 112.605 29.1812 112.888 29.3327C113.178 29.4841 113.409 29.708 113.58 30.0044C113.751 30.3007 113.837 30.6662 113.837 31.1009V34.0248H113.056V31.1601C113.056 30.6794 112.934 30.3304 112.691 30.113C112.454 29.8957 112.131 29.7871 111.723 29.7871C111.255 29.7871 110.873 29.9385 110.577 30.2415C110.287 30.5444 110.142 30.9955 110.142 31.5948V34.0248H109.362Z" fill="white"/>
<path d="M102.787 31.6339V31.4956C102.787 30.9885 102.889 30.5539 103.093 30.1917C103.297 29.8295 103.574 29.5496 103.923 29.352C104.272 29.1544 104.654 29.0557 105.069 29.0557C105.576 29.0557 105.964 29.1544 106.234 29.352C106.511 29.543 106.715 29.757 106.847 29.9941H106.985V29.194H107.726V35.1505C107.726 35.4139 107.654 35.6213 107.509 35.7728C107.364 35.9243 107.153 36 106.876 36H103.597V35.3085H106.669C106.867 35.3085 106.965 35.2098 106.965 35.0122V33.1749H106.827C106.748 33.3197 106.636 33.4613 106.491 33.5996C106.346 33.7379 106.159 33.8532 105.928 33.9454C105.698 34.031 105.411 34.0738 105.069 34.0738C104.654 34.0738 104.272 33.975 103.923 33.7774C103.574 33.5799 103.297 33.3 103.093 32.9378C102.889 32.569 102.787 32.1344 102.787 31.6339ZM105.276 33.3823C105.777 33.3823 106.182 33.2242 106.491 32.9081C106.807 32.592 106.965 32.1574 106.965 31.6042V31.5252C106.965 30.9654 106.807 30.5308 106.491 30.2213C106.182 29.9052 105.777 29.7471 105.276 29.7471C104.782 29.7471 104.374 29.9052 104.051 30.2213C103.735 30.5308 103.577 30.9654 103.577 31.5252V31.6042C103.577 32.1574 103.735 32.592 104.051 32.9081C104.374 33.2242 104.782 33.3823 105.276 33.3823Z" fill="white"/>
<path d="M100.602 34.0245V29.194H101.383V34.0245H100.602ZM100.998 28.4433C100.826 28.4433 100.681 28.3873 100.563 28.2754C100.451 28.1634 100.395 28.0218 100.395 27.8506C100.395 27.6728 100.451 27.5279 100.563 27.416C100.681 27.304 100.826 27.248 100.998 27.248C101.169 27.248 101.31 27.304 101.422 27.416C101.534 27.5279 101.59 27.6728 101.59 27.8506C101.59 28.0218 101.534 28.1634 101.422 28.2754C101.31 28.3873 101.169 28.4433 100.998 28.4433Z" fill="white"/>
<path d="M97.3392 34.1627C96.74 34.1627 96.2329 34.0244 95.818 33.7478C95.4097 33.4712 95.1628 33.0333 95.0771 32.434L95.818 32.2661C95.8707 32.5822 95.9695 32.8324 96.1144 33.0168C96.2592 33.1946 96.437 33.323 96.6478 33.4021C96.8651 33.4745 97.0956 33.5107 97.3392 33.5107C97.7014 33.5107 97.9879 33.4383 98.1986 33.2934C98.4094 33.1485 98.5147 32.9542 98.5147 32.7106C98.5147 32.4603 98.4127 32.2858 98.2085 32.187C98.011 32.0817 97.7377 31.9961 97.3886 31.9302L96.9836 31.8611C96.6741 31.8084 96.3909 31.7261 96.1341 31.6141C95.8773 31.5022 95.6731 31.3507 95.5217 31.1597C95.3702 30.9687 95.2945 30.7284 95.2945 30.4386C95.2945 30.004 95.4624 29.6648 95.7983 29.4212C96.1341 29.1775 96.5786 29.0557 97.1318 29.0557C97.6784 29.0557 98.1196 29.1808 98.4555 29.431C98.7979 29.6747 99.0185 30.0204 99.1173 30.4682L98.3863 30.6559C98.3271 30.3069 98.1855 30.0632 97.9616 29.9249C97.7377 29.7801 97.4611 29.7076 97.1318 29.7076C96.8025 29.7076 96.5424 29.7702 96.3514 29.8953C96.1605 30.0138 96.065 30.1917 96.065 30.4287C96.065 30.6592 96.1539 30.8304 96.3317 30.9424C96.5161 31.0478 96.7597 31.1268 97.0627 31.1795L97.4677 31.2486C97.8101 31.3079 98.1163 31.3902 98.3863 31.4956C98.6629 31.5943 98.8802 31.7392 99.0383 31.9302C99.2029 32.1212 99.2852 32.3714 99.2852 32.6809C99.2852 33.1551 99.1074 33.5206 98.7518 33.7774C98.4028 34.0343 97.9319 34.1627 97.3392 34.1627Z" fill="white"/>
<path d="M91.7601 34.1627C91.2728 34.1627 90.8447 34.0606 90.4759 33.8564C90.1071 33.6457 89.8207 33.3527 89.6165 32.9773C89.4124 32.6019 89.3103 32.1673 89.3103 31.6734V31.5548C89.3103 31.0543 89.4124 30.6164 89.6165 30.241C89.8207 29.8657 90.1038 29.5759 90.466 29.3718C90.8282 29.161 91.2431 29.0557 91.7107 29.0557C92.1651 29.0557 92.5668 29.1544 92.9158 29.352C93.2649 29.543 93.5382 29.8196 93.7357 30.1818C93.9333 30.544 94.0321 30.9687 94.0321 31.4561V31.8117H90.0907C90.1104 32.3319 90.2784 32.7402 90.5945 33.0366C90.9106 33.3263 91.3057 33.4712 91.7798 33.4712C92.1947 33.4712 92.5141 33.3757 92.738 33.1847C92.9619 32.9938 93.1332 32.7666 93.2517 32.5031L93.9234 32.8291C93.8246 33.0333 93.6863 33.2374 93.5085 33.4416C93.3373 33.6457 93.1101 33.8169 92.8269 33.9552C92.5503 34.0935 92.1947 34.1627 91.7601 34.1627ZM90.1006 31.1696H93.2418C93.2155 30.7218 93.0607 30.3728 92.7775 30.1225C92.5009 29.8723 92.1453 29.7471 91.7107 29.7471C91.2695 29.7471 90.9073 29.8723 90.6241 30.1225C90.3409 30.3728 90.1664 30.7218 90.1006 31.1696Z" fill="white"/>
<path d="M82.6421 34.0251V33.2842H83.6101V27.8512H82.6421V27.1104H85.3388C86.2476 27.1104 86.949 27.3408 87.4429 27.8018C87.9434 28.2628 88.1936 28.9707 88.1936 29.9256V31.2098C88.1936 32.1713 87.9434 32.8825 87.4429 33.3435C86.949 33.7979 86.2476 34.0251 85.3388 34.0251H82.6421ZM84.4399 33.2743H85.3388C86.0105 33.2743 86.5176 33.1097 86.8601 32.7804C87.2025 32.4511 87.3737 31.9408 87.3737 31.2493V29.896C87.3737 29.1913 87.2025 28.6777 86.8601 28.355C86.5176 28.0323 86.0105 27.871 85.3388 27.871H84.4399V33.2743Z" fill="white"/>
<path d="M76.8272 34.1627C76.3399 34.1627 75.9118 34.0606 75.5431 33.8564C75.1743 33.6457 74.8878 33.3527 74.6837 32.9773C74.4795 32.6019 74.3774 32.1673 74.3774 31.6734V31.5548C74.3774 31.0543 74.4795 30.6164 74.6837 30.241C74.8878 29.8657 75.171 29.5759 75.5332 29.3718C75.8954 29.161 76.3103 29.0557 76.7778 29.0557C77.2322 29.0557 77.6339 29.1544 77.983 29.352C78.332 29.543 78.6053 29.8196 78.8029 30.1818C79.0004 30.544 79.0992 30.9687 79.0992 31.4561V31.8117H75.1578C75.1776 32.3319 75.3455 32.7402 75.6616 33.0366C75.9777 33.3263 76.3728 33.4712 76.847 33.4712C77.2619 33.4712 77.5813 33.3757 77.8052 33.1847C78.0291 32.9938 78.2003 32.7666 78.3188 32.5031L78.9905 32.8291C78.8918 33.0333 78.7535 33.2374 78.5757 33.4416C78.4044 33.6457 78.1772 33.8169 77.8941 33.9552C77.6175 34.0935 77.2619 34.1627 76.8272 34.1627ZM75.1677 31.1696H78.3089C78.2826 30.7218 78.1278 30.3728 77.8447 30.1225C77.5681 29.8723 77.2125 29.7471 76.7778 29.7471C76.3366 29.7471 75.9744 29.8723 75.6912 30.1225C75.4081 30.3728 75.2335 30.7218 75.1677 31.1696Z" fill="white"/>
<path d="M70.7172 34.0248L68.9885 29.1943H69.8183L71.2704 33.4419H71.4087L72.8608 29.1943H73.6905L71.9618 34.0248H70.7172Z" fill="white"/>
<path d="M67.071 34.0245V29.194H67.8513V34.0245H67.071ZM67.4661 28.4433C67.2949 28.4433 67.15 28.3873 67.0315 28.2754C66.9195 28.1634 66.8635 28.0218 66.8635 27.8506C66.8635 27.6728 66.9195 27.5279 67.0315 27.416C67.15 27.304 67.2949 27.248 67.4661 27.248C67.6373 27.248 67.7789 27.304 67.8909 27.416C68.0028 27.5279 68.0588 27.6728 68.0588 27.8506C68.0588 28.0218 68.0028 28.1634 67.8909 28.2754C67.7789 28.3873 67.6373 28.4433 67.4661 28.4433Z" fill="white"/>
<path d="M64.3054 34.0248C64.0288 34.0248 63.8148 33.9491 63.6633 33.7976C63.5184 33.6461 63.446 33.4387 63.446 33.1753V29.876H61.9939V29.1944H63.446V27.4756H64.2264V29.1944H65.8069V29.876H64.2264V33.0567C64.2264 33.2543 64.3218 33.3531 64.5128 33.3531H65.5895V34.0248H64.3054Z" fill="white"/>
<path d="M58.6453 34.1627C58.3095 34.1627 58.0033 34.1034 57.7267 33.9849C57.4501 33.8663 57.2328 33.6951 57.0747 33.4712C56.9167 33.2473 56.8376 32.974 56.8376 32.6513C56.8376 32.322 56.9167 32.052 57.0747 31.8413C57.2328 31.624 57.4501 31.4626 57.7267 31.3573C58.0033 31.2453 58.3128 31.1893 58.6552 31.1893H60.2851V30.8337C60.2851 30.4913 60.183 30.2213 59.9789 30.0237C59.7813 29.8262 59.485 29.7274 59.0899 29.7274C58.7013 29.7274 58.3984 29.8229 58.1811 30.0138C57.9638 30.1982 57.8156 30.4485 57.7366 30.7646L57.0056 30.5275C57.0846 30.2575 57.2097 30.0138 57.3809 29.7965C57.5522 29.5726 57.7794 29.3948 58.0625 29.2631C58.3523 29.1248 58.698 29.0557 59.0997 29.0557C59.7188 29.0557 60.1995 29.217 60.542 29.5397C60.8844 29.8558 61.0556 30.3036 61.0556 30.8831V33.0662C61.0556 33.2638 61.1478 33.3625 61.3322 33.3625H61.7767V34.0244H61.0951C60.8778 34.0244 60.7033 33.9651 60.5716 33.8466C60.4399 33.7214 60.374 33.5568 60.374 33.3527V33.3033H60.2555C60.183 33.4284 60.0843 33.5601 59.9591 33.6984C59.8406 33.8301 59.676 33.9388 59.4652 34.0244C59.2545 34.1166 58.9812 34.1627 58.6453 34.1627ZM58.7343 33.491C59.1952 33.491 59.5673 33.356 59.8505 33.086C60.1402 32.8094 60.2851 32.4241 60.2851 31.9302V31.8215H58.6849C58.3753 31.8215 58.1185 31.8907 57.9144 32.029C57.7168 32.1607 57.618 32.3616 57.618 32.6316C57.618 32.9016 57.7201 33.1123 57.9242 33.2638C58.135 33.4152 58.405 33.491 58.7343 33.491Z" fill="white"/>
<path d="M53.5306 34.1627C53.0433 34.1627 52.6152 34.0606 52.2464 33.8564C51.8776 33.6457 51.5912 33.3527 51.387 32.9773C51.1829 32.6019 51.0808 32.1673 51.0808 31.6734V31.5548C51.0808 31.0543 51.1829 30.6164 51.387 30.241C51.5912 29.8657 51.8744 29.5759 52.2366 29.3718C52.5988 29.161 53.0136 29.0557 53.4812 29.0557C53.9356 29.0557 54.3373 29.1544 54.6863 29.352C55.0354 29.543 55.3087 29.8196 55.5062 30.1818C55.7038 30.544 55.8026 30.9687 55.8026 31.4561V31.8117H51.8612C51.8809 32.3319 52.0489 32.7402 52.365 33.0366C52.6811 33.3263 53.0762 33.4712 53.5503 33.4712C53.9652 33.4712 54.2846 33.3757 54.5085 33.1847C54.7324 32.9938 54.9037 32.7666 55.0222 32.5031L55.6939 32.8291C55.5951 33.0333 55.4568 33.2374 55.279 33.4416C55.1078 33.6457 54.8806 33.8169 54.5974 33.9552C54.3208 34.0935 53.9652 34.1627 53.5306 34.1627ZM51.8711 31.1696H55.0123C54.986 30.7218 54.8312 30.3728 54.548 30.1225C54.2715 29.8723 53.9158 29.7471 53.4812 29.7471C53.04 29.7471 52.6778 29.8723 52.3946 30.1225C52.1114 30.3728 51.9369 30.7218 51.8711 31.1696Z" fill="white"/>
<path d="M47.7681 34.025V29.1946H48.5287V29.7873H48.667C48.7526 29.5765 48.8843 29.4218 49.0621 29.323C49.2399 29.2242 49.4737 29.1748 49.7635 29.1748H50.3364V29.886H49.7141C49.365 29.886 49.0819 29.9848 48.8645 30.1824C48.6538 30.3734 48.5484 30.673 48.5484 31.0813V34.025H47.7681Z" fill="white"/>
<path d="M43.8996 34.163C43.0764 34.163 42.4212 33.9259 41.9339 33.4517C41.4465 32.971 41.2029 32.273 41.2029 31.3576V29.7771C41.2029 28.8617 41.4465 28.1669 41.9339 27.6928C42.4212 27.212 43.0764 26.9717 43.8996 26.9717C44.7162 26.9717 45.3418 27.1989 45.7765 27.6533C46.2177 28.1077 46.4383 28.73 46.4383 29.5202V29.5696H45.6184V29.4906C45.6184 28.9704 45.4768 28.5456 45.1937 28.2163C44.9171 27.8805 44.4857 27.7125 43.8996 27.7125C43.3135 27.7125 42.8558 27.8936 42.5266 28.2558C42.1973 28.6115 42.0326 29.1119 42.0326 29.7573V31.3773C42.0326 32.0227 42.1973 32.5265 42.5266 32.8887C42.8558 33.2443 43.3135 33.4221 43.8996 33.4221C44.4857 33.4221 44.9171 33.2575 45.1937 32.9282C45.4768 32.5923 45.6184 32.1643 45.6184 31.644V31.486H46.4383V31.6144C46.4383 32.4047 46.2177 33.027 45.7765 33.4814C45.3418 33.9358 44.7162 34.163 43.8996 34.163Z" fill="white"/>
</g>
</g>
<defs>
<clipPath id="clip0_681_287">
<rect width="125" height="36" fill="white"/>
</clipPath>
<clipPath id="clip1_681_287">
<rect width="34.0247" height="34.0247" fill="white"/>
</clipPath>
</defs>
</svg>
